<svg id="boxes" xmlns="http://www.w3.org/2000/svg" width="69.453" height="69.453" viewBox="0 0 69.453 69.453">
  <path id="Path_1204" data-name="Path 1204" d="M68.516,22.81,35.959.382a2.176,2.176,0,0,0-2.463,0L.941,22.81A2.167,2.167,0,0,0,0,24.6V66.559a2.9,2.9,0,0,0,2.894,2.894H8.682V34.727a2.9,2.9,0,0,1,2.894-2.894h46.3a2.9,2.9,0,0,1,2.894,2.894V69.453h5.788a2.9,2.9,0,0,0,2.894-2.894V24.6A2.171,2.171,0,0,0,68.516,22.81Z" fill="#1760a6"/>
  <path id="Path_1205" data-name="Path 1205" d="M16.352,19v2.17a2.17,2.17,0,1,1-4.341,0V19H6.947A1.447,1.447,0,0,0,5.5,20.447V32.022a1.447,1.447,0,0,0,1.447,1.447H21.416a1.447,1.447,0,0,0,1.447-1.447V20.447A1.447,1.447,0,0,0,21.416,19Z" transform="translate(10.416 35.984)" fill="#ff9e0e"/>
  <path id="Path_1206" data-name="Path 1206" d="M23.352,19v2.17a2.17,2.17,0,0,1-4.341,0V19H13.947A1.447,1.447,0,0,0,12.5,20.447V32.022a1.447,1.447,0,0,0,1.447,1.447H28.416a1.447,1.447,0,0,0,1.447-1.447V20.447A1.447,1.447,0,0,0,28.416,19Z" transform="translate(23.674 35.984)" fill="#ff9e0e"/>
  <path id="Path_1207" data-name="Path 1207" d="M19.852,13v2.17a2.17,2.17,0,0,1-4.341,0V13H10.447A1.447,1.447,0,0,0,9,14.447V26.022a1.447,1.447,0,0,0,1.447,1.447H24.916a1.447,1.447,0,0,0,1.447-1.447V14.447A1.447,1.447,0,0,0,24.916,13Z" transform="translate(17.045 24.62)" fill="#ff9e0e"/>
</svg>
