<svg id="chat" xmlns="http://www.w3.org/2000/svg" width="33.946" height="31.822" viewBox="0 0 33.946 31.822">
  <path id="Path_1277" data-name="Path 1277" d="M141.943,208.758a10.556,10.556,0,0,0,2.95-7.22,10.87,10.87,0,0,0-4.243-8.413c-.06,7.564-7.173,13.716-15.911,13.716h-5.914c2.287,3.772,6.934,6.364,12.278,6.364h12.729a1.061,1.061,0,0,0,.981-.656,1.05,1.05,0,0,0-.232-1.154Z" transform="translate(-110.948 -181.385)" fill="#1760a6"/>
  <path id="Path_1278" data-name="Path 1278" d="M13.791,16.026C6.187,16.026,0,21.257,0,27.694a10.568,10.568,0,0,0,2.95,7.22L.313,37.552a1.059,1.059,0,0,0,.749,1.81H13.791c7.6,0,13.789-5.231,13.789-11.668S21.4,16.026,13.791,16.026Z" transform="translate(0 -16.026)" fill="#1760a6"/>
  <g id="Group_2573" data-name="Group 2573" transform="translate(6.366 8.486)">
    <path id="Path_1279" data-name="Path 1279" d="M109.815,144.026H97.087a1.061,1.061,0,0,0,0,2.121h12.729a1.061,1.061,0,0,0,0-2.121Z" transform="translate(-96.026 -144.026)" fill="#fff"/>
    <path id="Path_1280" data-name="Path 1280" d="M105.572,208.026H97.087a1.061,1.061,0,1,0,0,2.121h8.486a1.061,1.061,0,1,0,0-2.121Z" transform="translate(-96.026 -203.783)" fill="#fff"/>
  </g>
</svg>
