<svg xmlns="http://www.w3.org/2000/svg" width="27.239" height="30" viewBox="0 0 27.239 30">
  <path id="Icon_material-phonelink-ring" data-name="Icon material-phonelink-ring" d="M27.682,10.636,26.318,12a6.255,6.255,0,0,1,0,8.864l1.364,1.364a7.846,7.846,0,0,0,0-11.591ZM24.818,13.5l-1.364,1.364a2.66,2.66,0,0,1,0,3.136l1.364,1.364a4.115,4.115,0,0,0,0-5.864Zm-5.455-12H5.727A2.735,2.735,0,0,0,3,4.227V28.773A2.735,2.735,0,0,0,5.727,31.5H19.364a2.735,2.735,0,0,0,2.727-2.727V4.227A2.735,2.735,0,0,0,19.364,1.5Zm0,25.909H5.727V5.591H19.364Z" transform="translate(-3 -1.5)" fill="#165fa6"/>
</svg>
