<svg xmlns="http://www.w3.org/2000/svg" width="27.999" height="52.247" viewBox="0 0 27.999 52.247">
  <g id="Group_7" data-name="Group 7" transform="translate(-18.051 -0.529)">
    <path id="Path_1036" data-name="Path 1036" d="M31.5.743C26.252,5.8,23.073,14.371,23.536,22.27a19.72,19.72,0,0,0-5.485,13.636.778.778,0,0,0,1.244.629L24.14,32.9l.063,1.11a.778.778,0,0,0,.778.734l14.139.007a.779.779,0,0,0,.776-.734l.062-1.11,4.848,3.635a.774.774,0,0,0,.814.036.714.714,0,0,0,.181-.133.878.878,0,0,0,.248-.6,19.718,19.718,0,0,0-5.5-13.571C41,14.365,37.839,5.772,32.57.743A.781.781,0,0,0,31.5.743Zm4.434,14.566a3.889,3.889,0,1,1-3.891-3.891A3.873,3.873,0,0,1,35.929,15.309Z" transform="translate(0 0)" fill="#0286ff"/>
    <path id="Path_1037" data-name="Path 1037" d="M32.7,64.491c0,2.38,3.743,9.392,4.169,10.183a.787.787,0,0,0,1.249.184.805.805,0,0,0,.137-.183c.426-.791,4.169-7.8,4.169-10.182a4.862,4.862,0,1,0-9.724,0Z" transform="translate(-5.532 -22.312)" fill="#0286ff"/>
  </g>
</svg>
