<svg xmlns="http://www.w3.org/2000/svg" width="50.745" height="39.228" viewBox="0 0 50.745 39.228">
  <g id="sales" transform="translate(0 -57.979)">
    <g id="Group_2107" data-name="Group 2107" transform="translate(5.979 68.455)">
      <path id="Path_1005" data-name="Path 1005" d="M68.421,219.183H60.195V200.788a.829.829,0,0,1,.829-.829h6.569a.829.829,0,0,1,.829.829Z" transform="translate(-60.195 -196.333)" fill="#1760a6"/>
      <path id="Path_1006" data-name="Path 1006" d="M222.265,186.3h-8.226V164.282a.829.829,0,0,1,.829-.829h6.569a.829.829,0,0,1,.829.829Z" transform="translate(-198.758 -163.453)" fill="#1760a6"/>
      <path id="Path_1007" data-name="Path 1007" d="M376.109,231.166h-8.226V214.093a.829.829,0,0,1,.829-.829h6.569a.829.829,0,0,1,.829.829Z" transform="translate(-337.322 -208.317)" fill="#1760a6"/>
    </g>
    <g id="Group_2108" data-name="Group 2108" transform="translate(0 94.227)">
      <path id="Path_1008" data-name="Path 1008" d="M49.255,425.9H1.49a1.49,1.49,0,0,1,0-2.98H49.255a1.49,1.49,0,0,1,0,2.98Z" transform="translate(0 -422.922)" fill="#1760a6"/>
    </g>
    <path id="Path_1009" data-name="Path 1009" d="M60.8,63.648a1.492,1.492,0,0,0-1.145-1.581L54.845,60.9a1.49,1.49,0,1,0-.7,2.9l1.362.331-3.86,2.382L37.009,58.174a1.489,1.489,0,0,0-1.37-.054L21.092,64.948l-6.954-4.34a1.49,1.49,0,1,0-1.578,2.528L20.2,67.9a1.49,1.49,0,0,0,1.422.085l14.581-6.844,14.731,8.387a1.538,1.538,0,0,0,1.52-.027l4.679-2.887-.312,1.459a1.49,1.49,0,0,0,2.914.622l1.033-4.837a1.735,1.735,0,0,0,.033-.215Z" transform="translate(-10.681)" fill="#ff9e0e"/>
  </g>
</svg>
