<svg xmlns="http://www.w3.org/2000/svg" width="82.444" height="81.686" viewBox="0 0 82.444 81.686">
  <g id="sketch_1_" data-name="sketch (1)" transform="translate(0.495 -0.821)">
    <path id="Path_979" data-name="Path 979" d="M75.12,104.457H.035s.064,44.723,0,47.2c0,.021,0,.043,0,.064a9.11,9.11,0,0,0,9.106,8.862H48.8a1.2,1.2,0,0,0,.851-.352l26.32-26.32a1.2,1.2,0,0,0,.352-.851v-27.4A1.2,1.2,0,0,0,75.12,104.457Z" transform="translate(-0.029 -87.048)" fill="#fff" stroke="#dbdbdb" stroke-width="1"/>
    <g id="Group_2096" data-name="Group 2096" transform="translate(21.761 17.409)">
      <path id="Path_980" data-name="Path 980" d="M135.96,135.907h4.915l3.941-12.367L163.9,104.457h-4.49L140.326,123.54Z" transform="translate(-135.96 -104.457)" fill="#c6c5ca"/>
      <path id="Path_981" data-name="Path 981" d="M448.109,104.457H444.1v34.311l4.86-4.86a1.2,1.2,0,0,0,.352-.851v-27.4A1.2,1.2,0,0,0,448.109,104.457Z" transform="translate(-394.78 -104.457)" fill="#1760a6"/>
    </g>
    <path id="Path_982" data-name="Path 982" d="M161.29,294.484H127.98a1.2,1.2,0,0,1,0-2.406h33.31a1.2,1.2,0,1,1,0,2.406Z" transform="translate(-106.486 -244.639)" fill="#3c5156"/>
    <path id="Path_983" data-name="Path 983" d="M9.14,73.362a9.287,9.287,0,0,1,1.522.127V23.8a1.2,1.2,0,0,0-1.2-1.2A9.471,9.471,0,0,0,0,32.057V81.321A9.23,9.23,0,0,1,9.14,73.362Z" transform="translate(0 -18.291)" fill="#1760a6"/>
    <path id="Path_984" data-name="Path 984" d="M221.268,57.53l-7.224-7.224a1.2,1.2,0,0,0-1.7,0l-26.6,26.6c-.016.016-.03.033-.045.05l9.054,8.79,26.519-26.519A1.2,1.2,0,0,0,221.268,57.53Z" transform="translate(-155.973 -41.269)" fill="#ff9720"/>
    <path id="Path_985" data-name="Path 985" d="M221.619,109.667l3.3,3.208,26.519-26.519a1.2,1.2,0,0,0,0-1.7l-2.407-2.407Z" transform="translate(-186.147 -68.394)" fill="#ffa304"/>
    <path id="Path_986" data-name="Path 986" d="M163.4,218.7a1.2,1.2,0,0,0-.246.409l-3.937,11.153a1.2,1.2,0,0,0,1.534,1.534l11.153-3.937a1.2,1.2,0,0,0,.536-.383Z" transform="translate(-133.679 -183.007)" fill="#ffc89f"/>
    <path id="Path_987" data-name="Path 987" d="M160.356,261.123a1.2,1.2,0,0,0,.4-.069l11.153-3.937a1.2,1.2,0,0,0,.536-.383l-3.3-3.2-8.942,3.2-.984,2.786a1.2,1.2,0,0,0,1.134,1.6Z" transform="translate(-133.68 -212.264)" fill="#f7b081"/>
    <path id="Path_988" data-name="Path 988" d="M160.357,255.8a1.2,1.2,0,0,0,.4-.069l7.034-2.483-6.1-6.053-2.471,7a1.2,1.2,0,0,0,1.134,1.6Z" transform="translate(-133.681 -206.939)" fill="#3c5156"/>
    <path id="Path_989" data-name="Path 989" d="M164.42,264.106l-4.214,1.508-.984,2.786a1.2,1.2,0,0,0,1.534,1.534l7.034-2.483Z" transform="translate(-133.68 -221.145)" fill="#304144"/>
    <path id="Path_990" data-name="Path 990" d="M360.579,33.112l-7.224-7.223a1.2,1.2,0,0,0-1.7,0L346.9,30.644l8.921,8.928,4.759-4.759a1.2,1.2,0,0,0,0-1.7Z" transform="translate(-291.376 -20.76)" fill="#ff6137"/>
    <path id="Path_991" data-name="Path 991" d="M382.29,63.437l1.13,1.131,2.127,2.127,4.758-4.758a1.2,1.2,0,0,0,0-1.7L387.9,57.829Z" transform="translate(-321.102 -47.884)" fill="#e04f32"/>
    <path id="Path_992" data-name="Path 992" d="M384.218,5.633,380.48,1.895a3.668,3.668,0,0,0-5.187,0l-2.382,2.382-.852.852L371.192,6l8.941,8.908,1.277-1.277,2.807-2.807a3.668,3.668,0,0,0,0-5.187Z" transform="translate(-311.78)" fill="#1760a6"/>
    <g id="Group_2097" data-name="Group 2097" transform="translate(59.412 2.683)">
      <path id="Path_993" data-name="Path 993" d="M371.208,33.061l-.015.015,2.668,2.658Z" transform="translate(-371.193 -29.763)" fill="#1760a6"/>
      <path id="Path_994" data-name="Path 994" d="M414.032,15.4l-2.95-2.95a3.732,3.732,0,0,1-.327,4.86l-2.807,2.839-1.26,1.275,3.26,3.248,1.277-1.277,2.807-2.807a3.668,3.668,0,0,0,0-5.187Z" transform="translate(-401.007 -12.455)" fill="#1760a6"/>
    </g>
    <path id="Path_995" data-name="Path 995" d="M283.73,240.387a1.2,1.2,0,0,0-1.311.261L241.468,281.6a1.2,1.2,0,0,0,.851,2.053H283.27a1.2,1.2,0,0,0,1.2-1.2V241.5A1.2,1.2,0,0,0,283.73,240.387Zm-22.3,33.535,13.145-13.145v13.145Z" transform="translate(-202.524 -201.145)" fill="#1760a6"/>
    <path id="Path_996" data-name="Path 996" d="M483.9,240.387a1.2,1.2,0,0,0-1.311.261l-3.159,3.159v39.846h4.009a1.2,1.2,0,0,0,1.2-1.2V241.5A1.2,1.2,0,0,0,483.9,240.387Z" transform="translate(-402.698 -201.145)" fill="#063c70"/>
    <g id="Group_2098" data-name="Group 2098" transform="translate(76.121 53.869)">
      <path id="Path_997" data-name="Path 997" d="M481.418,332.253h-4.625a1.2,1.2,0,0,0,0,2.406h4.625Z" transform="translate(-475.591 -332.253)" fill="#fff"/>
      <path id="Path_998" data-name="Path 998" d="M481.418,369.929h-4.625a1.2,1.2,0,1,0,0,2.406h4.625Z" transform="translate(-475.591 -363.899)" fill="#fff"/>
      <path id="Path_999" data-name="Path 999" d="M481.418,407.6h-4.625a1.2,1.2,0,0,0,0,2.406h4.625Z" transform="translate(-475.591 -395.542)" fill="#fff"/>
      <path id="Path_1000" data-name="Path 1000" d="M481.418,445.278h-4.625a1.2,1.2,0,0,0,0,2.406h4.625Z" transform="translate(-475.591 -427.188)" fill="#fff"/>
    </g>
  </g>
</svg>
