<svg xmlns="http://www.w3.org/2000/svg" width="91.845" height="69.454" viewBox="0 0 91.845 69.454">
  <g id="store" transform="translate(0 -48.787)">
    <path id="Path_1200" data-name="Path 1200" d="M89.165,156.213H4.149V196.12H.953v4.9H92.36v-4.9h-3.2V156.213ZM49.026,161.24H62.645v6.575H49.026Zm-18.358,0H44.287v6.575H30.668Zm-4.739,6.575H12.31V161.24H25.929ZM36.388,193.4h-7V178.833h7Zm9.179,0h-7V178.833h7Zm9.179,0h-7V178.833h7Zm9.179,0h-7V178.833h7ZM81,167.815H67.384V161.24H81Z" transform="translate(-0.734 -82.774)" fill="#1760a6"/>
    <path id="Path_1201" data-name="Path 1201" d="M37.185,65.309V60.567h4.882V48.787h-37v11.78H9.946v4.743H0v5.376H91.845V65.309ZM33.462,51.451h3.723v1.123H34.832v1.42h2.189v1.123H34.832v1.667h2.353v1.132H33.462Zm-5.978,0h1.884a3.223,3.223,0,0,1,1.95.48,1.912,1.912,0,0,1,.318,2.472,2.076,2.076,0,0,1-.889.7q1.458,2.18,1.9,2.816H31.127l-1.543-2.481h-.73v2.481h-1.37V51.451Zm-6.7.749a2.984,2.984,0,0,1,2.288-.851,2.942,2.942,0,0,1,2.279.858,4.237,4.237,0,0,1-.007,4.935A2.95,2.95,0,0,1,23.067,58a2.95,2.95,0,0,1-2.281-.862,3.522,3.522,0,0,1-.8-2.476A3.474,3.474,0,0,1,20.787,52.2ZM14.4,51.451h4.881v1.141H17.526v5.324H16.155V52.592H14.4ZM9.646,57.615V56.341a7.46,7.46,0,0,0,1.108.411,3.267,3.267,0,0,0,.829.12,1.179,1.179,0,0,0,.692-.173.589.589,0,0,0,.241-.513.568.568,0,0,0-.106-.338,1.187,1.187,0,0,0-.312-.285,8.032,8.032,0,0,0-.838-.438,3.987,3.987,0,0,1-.889-.535,2.005,2.005,0,0,1-.473-.6,1.7,1.7,0,0,1-.177-.8,1.672,1.672,0,0,1,.581-1.349,2.417,2.417,0,0,1,1.607-.491,3.781,3.781,0,0,1,.961.12,6.624,6.624,0,0,1,.957.336l-.442,1.066a6.535,6.535,0,0,0-.855-.3,2.769,2.769,0,0,0-.666-.084.882.882,0,0,0-.6.181.6.6,0,0,0-.208.473.583.583,0,0,0,.084.316.923.923,0,0,0,.268.261,8.311,8.311,0,0,0,.869.453,3.463,3.463,0,0,1,1.243.869,1.694,1.694,0,0,1,.336,1.068,1.672,1.672,0,0,1-.63,1.38,2.735,2.735,0,0,1-1.753.5A4.123,4.123,0,0,1,9.646,57.615Zm25.661,7.694H11.823V60.567H35.308Z" fill="#ff9e0e"/>
    <path id="Path_1202" data-name="Path 1202" d="M127.142,66.819a.772.772,0,0,0,.31-.68.708.708,0,0,0-.316-.655,1.916,1.916,0,0,0-.979-.195h-.416v1.747h.442A1.683,1.683,0,0,0,127.142,66.819Z" transform="translate(-96.886 -12.715)" fill="#ff9e0e"/>
    <path id="Path_1203" data-name="Path 1203" d="M95.011,69.288q1.64,0,1.64-2.18t-1.631-2.185a1.45,1.45,0,0,0-1.234.551,3.432,3.432,0,0,0,0,3.266A1.438,1.438,0,0,0,95.011,69.288Z" transform="translate(-71.944 -12.433)" fill="#ff9e0e"/>
  </g>
</svg>
